<?xml version="1.0" encoding="utf-8"?>
<svg version="1.1" id="Слой_1" xmlns="http://www.w3.org/2000/svg" xmlns:xlink="http://www.w3.org/1999/xlink" x="0px" y="0px"
	 viewBox="0 0 410 351" style="enable-background:new 0 0 410 351;" xml:space="preserve">
<style type="text/css">
	.st0{fill: #fff;}
</style>
<g id="XMLID_1_">
	<g id="XMLID_9_">
		<path id="XMLID_10_" class="st0" d="M211,1c7,1.3,14.1,2.3,21,3.9c38.3,9.2,68.9,46.4,70.1,85.1c0.1,1.6,0,3.3,0,5.2c-18.6,0-36.9,0-55.1,0
			c-1-4.6-1.6-9.1-3.1-13.3c-6.3-17.3-25.5-28.4-43.5-25.7c-19.2,3-34.5,19.1-35,38c-0.5,20.3-0.2,40.7-0.1,61
			c0,1.6,0.9,3.7,2.2,4.6c17.1,11.8,30,27.9,42.9,43.8c19.5,23.8,38.3,48.2,57.3,72.5c15.4,19.7,39.2,25.4,60.5,14.2
			c20.8-10.9,31.6-36.9,24.7-59.3c-7.1-22.9-29.7-37.4-53.4-34.3c-18.8,2.5-35.4,17.2-40.3,35.7c-0.4,1.4-0.7,2.8-1.4,5.2
			c-13.3-16.3-26.1-32-39.1-47.9c7.8-12.6,17.7-23,30.1-30.8c35.5-22.4,72.5-24.3,108.9-3.5c37.5,21.5,54.7,55.6,51.9,98.7
			c-3.7,57.1-54.1,100.6-111.1,96.5c-28.5-2-52.3-14.5-70.3-36.5c-20.5-25-39.5-51.1-60-76.1c-9.9-12-20.6-23.9-32.9-33.1
			c-22-16.3-51.1-11.5-66.6,8.9c-17.3,22.9-14.9,54,5.8,71.9c11.4,9.9,24.9,11.3,39.1,8.2c15.4-3.4,27.7-11.9,37.8-23.8
			c2.7-3.2,5.4-6.3,8.6-10.1c11.7,14.4,23.2,28.6,35.6,43.8c-7.4,6.9-14.2,14.2-21.9,20.2c-28.1,22-60,31.8-95.1,23.4
			c-41.5-10-65.1-38.6-74-79.4c-12-55.1,22.7-111,76.6-124.5c7.4-1.8,15.1-2.6,22.7-2.7c5.3-0.1,6.3-1.8,6.2-6.6
			c-0.3-13.7-0.2-27.3-0.1-41c0.6-47.2,38.2-87.4,85.3-91.3c1.6-0.1,3.2-0.7,4.8-1.1C203.7,1,207.3,1,211,1z"/>
	</g>
</g>
</svg>
